<mxfile host="app.diagrams.net" modified="2022-01-21T15:24:33.998Z" agent="5.0 (Windows NT 10.0; Win64; x64) AppleWebKit/537.36 (KHTML, like Gecko) Chrome/93.0.4577.82 Safari/537.36" etag="t_6IofcFZ080CNAP5xLL" version="16.3.0" type="github">
  <diagram id="tVElOGQIKsX8lntVu8m8" name="第 1 页">
    <mxGraphModel dx="1078" dy="463" grid="1" gridSize="10" guides="1" tooltips="1" connect="1" arrows="1" fold="1" page="1" pageScale="1" pageWidth="827" pageHeight="1169" background="#ffffff" math="0" shadow="0">
      <root>
        <mxCell id="0" />
        <mxCell id="1" parent="0" />
        <mxCell id="j-Q6WdCxTVeyPvP1pBzW-1" value="&lt;font face=&quot;Comic Sans MS&quot; style=&quot;font-size: 14px&quot;&gt;0&lt;/font&gt;" style="rounded=0;whiteSpace=wrap;html=1;shadow=1;fillColor=#f5f5f5;fontColor=#333333;strokeColor=#666666;glass=0;opacity=0;" vertex="1" parent="1">
          <mxGeometry x="240" y="120" width="40" height="40" as="geometry" />
        </mxCell>
        <mxCell id="j-Q6WdCxTVeyPvP1pBzW-2" value="&lt;font face=&quot;Comic Sans MS&quot; style=&quot;font-size: 14px&quot;&gt;1&lt;/font&gt;" style="rounded=0;whiteSpace=wrap;html=1;shadow=1;fillColor=#f5f5f5;fontColor=#333333;strokeColor=#666666;glass=0;opacity=0;" vertex="1" parent="1">
          <mxGeometry x="280" y="120" width="40" height="40" as="geometry" />
        </mxCell>
        <mxCell id="j-Q6WdCxTVeyPvP1pBzW-3" value="&lt;font face=&quot;Comic Sans MS&quot; style=&quot;font-size: 14px&quot;&gt;2&lt;/font&gt;" style="rounded=0;whiteSpace=wrap;html=1;shadow=1;fillColor=#f5f5f5;fontColor=#333333;strokeColor=#666666;glass=0;opacity=0;" vertex="1" parent="1">
          <mxGeometry x="320" y="120" width="40" height="40" as="geometry" />
        </mxCell>
        <mxCell id="j-Q6WdCxTVeyPvP1pBzW-4" value="&lt;font face=&quot;Comic Sans MS&quot;&gt;&lt;span style=&quot;font-size: 14px&quot;&gt;3&lt;/span&gt;&lt;/font&gt;" style="rounded=0;whiteSpace=wrap;html=1;shadow=1;fillColor=#f5f5f5;fontColor=#333333;strokeColor=#666666;glass=0;opacity=0;" vertex="1" parent="1">
          <mxGeometry x="360" y="120" width="40" height="40" as="geometry" />
        </mxCell>
        <mxCell id="j-Q6WdCxTVeyPvP1pBzW-5" value="&lt;font face=&quot;Comic Sans MS&quot; style=&quot;font-size: 14px&quot;&gt;a&lt;/font&gt;" style="rounded=0;whiteSpace=wrap;html=1;shadow=1;fillColor=#f8cecc;strokeColor=#b85450;glass=0;" vertex="1" parent="1">
          <mxGeometry x="240" y="160" width="40" height="40" as="geometry" />
        </mxCell>
        <mxCell id="j-Q6WdCxTVeyPvP1pBzW-6" value="&lt;font face=&quot;Comic Sans MS&quot; style=&quot;font-size: 14px&quot;&gt;b&lt;/font&gt;" style="rounded=0;whiteSpace=wrap;html=1;shadow=1;fillColor=#f8cecc;strokeColor=#b85450;glass=0;" vertex="1" parent="1">
          <mxGeometry x="280" y="160" width="40" height="40" as="geometry" />
        </mxCell>
        <mxCell id="j-Q6WdCxTVeyPvP1pBzW-7" value="&lt;font face=&quot;Comic Sans MS&quot; style=&quot;font-size: 14px&quot;&gt;c&lt;/font&gt;" style="rounded=0;whiteSpace=wrap;html=1;shadow=1;fillColor=#f8cecc;strokeColor=#b85450;glass=0;" vertex="1" parent="1">
          <mxGeometry x="320" y="160" width="40" height="40" as="geometry" />
        </mxCell>
        <mxCell id="j-Q6WdCxTVeyPvP1pBzW-8" value="&lt;font face=&quot;Comic Sans MS&quot; style=&quot;font-size: 14px&quot;&gt;a&lt;/font&gt;" style="rounded=0;whiteSpace=wrap;html=1;shadow=1;fillColor=#f5f5f5;strokeColor=#666666;glass=0;fontColor=#333333;" vertex="1" parent="1">
          <mxGeometry x="360" y="160" width="40" height="40" as="geometry" />
        </mxCell>
        <mxCell id="j-Q6WdCxTVeyPvP1pBzW-10" value="" style="shape=curlyBracket;whiteSpace=wrap;html=1;rounded=1;flipH=1;shadow=1;glass=0;fontFamily=Comic Sans MS;fontSize=14;rotation=90;" vertex="1" parent="1">
          <mxGeometry x="295" y="150" width="10" height="120" as="geometry" />
        </mxCell>
        <mxCell id="j-Q6WdCxTVeyPvP1pBzW-18" value="滑动窗口&amp;nbsp;" style="text;html=1;strokeColor=none;fillColor=none;align=center;verticalAlign=middle;whiteSpace=wrap;rounded=0;shadow=1;glass=0;fontFamily=Comic Sans MS;fontSize=14;" vertex="1" parent="1">
          <mxGeometry x="240" y="220" width="120" height="20" as="geometry" />
        </mxCell>
        <mxCell id="j-Q6WdCxTVeyPvP1pBzW-21" value="&lt;font style=&quot;font-size: 12px&quot;&gt;right&lt;/font&gt;" style="text;html=1;strokeColor=none;fillColor=none;align=center;verticalAlign=middle;whiteSpace=wrap;rounded=0;shadow=1;glass=0;fontFamily=Comic Sans MS;fontSize=12;" vertex="1" parent="1">
          <mxGeometry x="330" y="180" width="30" height="20" as="geometry" />
        </mxCell>
        <mxCell id="j-Q6WdCxTVeyPvP1pBzW-22" value="&lt;font style=&quot;font-size: 12px&quot;&gt;left&lt;/font&gt;" style="text;html=1;strokeColor=none;fillColor=none;align=center;verticalAlign=middle;whiteSpace=wrap;rounded=0;shadow=1;glass=0;fontFamily=Comic Sans MS;fontSize=12;" vertex="1" parent="1">
          <mxGeometry x="240" y="180" width="30" height="20" as="geometry" />
        </mxCell>
        <mxCell id="j-Q6WdCxTVeyPvP1pBzW-36" value="&lt;font face=&quot;Comic Sans MS&quot; style=&quot;font-size: 14px&quot;&gt;c&lt;/font&gt;" style="rounded=0;whiteSpace=wrap;html=1;shadow=1;fillColor=#f5f5f5;strokeColor=#666666;glass=0;fontColor=#333333;" vertex="1" parent="1">
          <mxGeometry x="400" y="160" width="40" height="40" as="geometry" />
        </mxCell>
        <mxCell id="j-Q6WdCxTVeyPvP1pBzW-37" value="&lt;font face=&quot;Comic Sans MS&quot; style=&quot;font-size: 14px&quot;&gt;b&lt;/font&gt;" style="rounded=0;whiteSpace=wrap;html=1;shadow=1;fillColor=#f5f5f5;strokeColor=#666666;glass=0;fontColor=#333333;" vertex="1" parent="1">
          <mxGeometry x="440" y="160" width="40" height="40" as="geometry" />
        </mxCell>
        <mxCell id="j-Q6WdCxTVeyPvP1pBzW-40" value="&lt;font face=&quot;Comic Sans MS&quot; style=&quot;font-size: 14px&quot;&gt;4&lt;/font&gt;" style="rounded=0;whiteSpace=wrap;html=1;shadow=1;fillColor=#f5f5f5;fontColor=#333333;strokeColor=#666666;glass=0;opacity=0;" vertex="1" parent="1">
          <mxGeometry x="400" y="120" width="40" height="40" as="geometry" />
        </mxCell>
        <mxCell id="j-Q6WdCxTVeyPvP1pBzW-41" value="&lt;font face=&quot;Comic Sans MS&quot; style=&quot;font-size: 14px&quot;&gt;5&lt;/font&gt;" style="rounded=0;whiteSpace=wrap;html=1;shadow=1;fillColor=#f5f5f5;fontColor=#333333;strokeColor=#666666;glass=0;opacity=0;" vertex="1" parent="1">
          <mxGeometry x="440" y="120" width="40" height="40" as="geometry" />
        </mxCell>
        <mxCell id="j-Q6WdCxTVeyPvP1pBzW-45" value="&lt;font face=&quot;Comic Sans MS&quot; style=&quot;font-size: 14px&quot;&gt;0&lt;/font&gt;" style="rounded=0;whiteSpace=wrap;html=1;shadow=1;fillColor=#f5f5f5;fontColor=#333333;strokeColor=#666666;glass=0;opacity=0;" vertex="1" parent="1">
          <mxGeometry x="240" y="280" width="40" height="40" as="geometry" />
        </mxCell>
        <mxCell id="j-Q6WdCxTVeyPvP1pBzW-46" value="&lt;font face=&quot;Comic Sans MS&quot; style=&quot;font-size: 14px&quot;&gt;1&lt;/font&gt;" style="rounded=0;whiteSpace=wrap;html=1;shadow=1;fillColor=#f5f5f5;fontColor=#333333;strokeColor=#666666;glass=0;opacity=0;" vertex="1" parent="1">
          <mxGeometry x="280" y="280" width="40" height="40" as="geometry" />
        </mxCell>
        <mxCell id="j-Q6WdCxTVeyPvP1pBzW-47" value="&lt;font face=&quot;Comic Sans MS&quot; style=&quot;font-size: 14px&quot;&gt;2&lt;/font&gt;" style="rounded=0;whiteSpace=wrap;html=1;shadow=1;fillColor=#f5f5f5;fontColor=#333333;strokeColor=#666666;glass=0;opacity=0;" vertex="1" parent="1">
          <mxGeometry x="320" y="280" width="40" height="40" as="geometry" />
        </mxCell>
        <mxCell id="j-Q6WdCxTVeyPvP1pBzW-48" value="&lt;font face=&quot;Comic Sans MS&quot;&gt;&lt;span style=&quot;font-size: 14px&quot;&gt;3&lt;/span&gt;&lt;/font&gt;" style="rounded=0;whiteSpace=wrap;html=1;shadow=1;fillColor=#f5f5f5;fontColor=#333333;strokeColor=#666666;glass=0;opacity=0;" vertex="1" parent="1">
          <mxGeometry x="360" y="280" width="40" height="40" as="geometry" />
        </mxCell>
        <mxCell id="j-Q6WdCxTVeyPvP1pBzW-66" style="rounded=0;orthogonalLoop=1;jettySize=auto;html=1;exitX=0.25;exitY=1;exitDx=0;exitDy=0;entryX=0.5;entryY=0;entryDx=0;entryDy=0;" edge="1" parent="1" source="j-Q6WdCxTVeyPvP1pBzW-49" target="j-Q6WdCxTVeyPvP1pBzW-65">
          <mxGeometry relative="1" as="geometry" />
        </mxCell>
        <mxCell id="j-Q6WdCxTVeyPvP1pBzW-49" value="&lt;font face=&quot;Comic Sans MS&quot; style=&quot;font-size: 14px&quot;&gt;a&lt;/font&gt;" style="rounded=0;whiteSpace=wrap;html=1;shadow=1;fillColor=#e1d5e7;strokeColor=#9673a6;glass=0;" vertex="1" parent="1">
          <mxGeometry x="240" y="320" width="40" height="40" as="geometry" />
        </mxCell>
        <mxCell id="j-Q6WdCxTVeyPvP1pBzW-50" value="&lt;font face=&quot;Comic Sans MS&quot; style=&quot;font-size: 14px&quot;&gt;b&lt;/font&gt;" style="rounded=0;whiteSpace=wrap;html=1;shadow=1;fillColor=#f8cecc;strokeColor=#b85450;glass=0;" vertex="1" parent="1">
          <mxGeometry x="280" y="320" width="40" height="40" as="geometry" />
        </mxCell>
        <mxCell id="j-Q6WdCxTVeyPvP1pBzW-51" value="&lt;font face=&quot;Comic Sans MS&quot; style=&quot;font-size: 14px&quot;&gt;c&lt;/font&gt;" style="rounded=0;whiteSpace=wrap;html=1;shadow=1;fillColor=#f8cecc;strokeColor=#b85450;glass=0;" vertex="1" parent="1">
          <mxGeometry x="320" y="320" width="40" height="40" as="geometry" />
        </mxCell>
        <mxCell id="j-Q6WdCxTVeyPvP1pBzW-52" value="&lt;font face=&quot;Comic Sans MS&quot; style=&quot;font-size: 14px&quot;&gt;a&lt;/font&gt;" style="rounded=0;whiteSpace=wrap;html=1;shadow=1;fillColor=#f8cecc;strokeColor=#b85450;glass=0;" vertex="1" parent="1">
          <mxGeometry x="360" y="320" width="40" height="40" as="geometry" />
        </mxCell>
        <mxCell id="j-Q6WdCxTVeyPvP1pBzW-53" value="" style="shape=curlyBracket;whiteSpace=wrap;html=1;rounded=1;flipH=1;shadow=1;glass=0;fontFamily=Comic Sans MS;fontSize=14;rotation=90;" vertex="1" parent="1">
          <mxGeometry x="335" y="310" width="10" height="120" as="geometry" />
        </mxCell>
        <mxCell id="j-Q6WdCxTVeyPvP1pBzW-54" value="滑动窗口&amp;nbsp;" style="text;html=1;strokeColor=none;fillColor=none;align=center;verticalAlign=middle;whiteSpace=wrap;rounded=0;shadow=1;glass=0;fontFamily=Comic Sans MS;fontSize=14;" vertex="1" parent="1">
          <mxGeometry x="280" y="380" width="120" height="20" as="geometry" />
        </mxCell>
        <mxCell id="j-Q6WdCxTVeyPvP1pBzW-55" value="&lt;font style=&quot;font-size: 12px&quot;&gt;right&lt;/font&gt;" style="text;html=1;strokeColor=none;fillColor=none;align=center;verticalAlign=middle;whiteSpace=wrap;rounded=0;shadow=1;glass=0;fontFamily=Comic Sans MS;fontSize=12;" vertex="1" parent="1">
          <mxGeometry x="370" y="340" width="30" height="20" as="geometry" />
        </mxCell>
        <mxCell id="j-Q6WdCxTVeyPvP1pBzW-56" value="&lt;font style=&quot;font-size: 12px&quot;&gt;left&lt;/font&gt;" style="text;html=1;strokeColor=none;fillColor=none;align=center;verticalAlign=middle;whiteSpace=wrap;rounded=0;shadow=1;glass=0;fontFamily=Comic Sans MS;fontSize=12;" vertex="1" parent="1">
          <mxGeometry x="280" y="340" width="30" height="20" as="geometry" />
        </mxCell>
        <mxCell id="j-Q6WdCxTVeyPvP1pBzW-58" value="&lt;font face=&quot;Comic Sans MS&quot; style=&quot;font-size: 14px&quot;&gt;c&lt;/font&gt;" style="rounded=0;whiteSpace=wrap;html=1;shadow=1;fillColor=#f5f5f5;strokeColor=#666666;glass=0;fontColor=#333333;" vertex="1" parent="1">
          <mxGeometry x="400" y="320" width="40" height="40" as="geometry" />
        </mxCell>
        <mxCell id="j-Q6WdCxTVeyPvP1pBzW-59" value="&lt;font face=&quot;Comic Sans MS&quot; style=&quot;font-size: 14px&quot;&gt;b&lt;/font&gt;" style="rounded=0;whiteSpace=wrap;html=1;shadow=1;fillColor=#f5f5f5;strokeColor=#666666;glass=0;fontColor=#333333;" vertex="1" parent="1">
          <mxGeometry x="440" y="320" width="40" height="40" as="geometry" />
        </mxCell>
        <mxCell id="j-Q6WdCxTVeyPvP1pBzW-61" value="&lt;font face=&quot;Comic Sans MS&quot; style=&quot;font-size: 14px&quot;&gt;4&lt;/font&gt;" style="rounded=0;whiteSpace=wrap;html=1;shadow=1;fillColor=#f5f5f5;fontColor=#333333;strokeColor=#666666;glass=0;opacity=0;" vertex="1" parent="1">
          <mxGeometry x="400" y="280" width="40" height="40" as="geometry" />
        </mxCell>
        <mxCell id="j-Q6WdCxTVeyPvP1pBzW-62" value="&lt;font face=&quot;Comic Sans MS&quot; style=&quot;font-size: 14px&quot;&gt;5&lt;/font&gt;" style="rounded=0;whiteSpace=wrap;html=1;shadow=1;fillColor=#f5f5f5;fontColor=#333333;strokeColor=#666666;glass=0;opacity=0;" vertex="1" parent="1">
          <mxGeometry x="440" y="280" width="40" height="40" as="geometry" />
        </mxCell>
        <mxCell id="j-Q6WdCxTVeyPvP1pBzW-65" value="被移除" style="text;html=1;strokeColor=none;fillColor=none;align=center;verticalAlign=middle;whiteSpace=wrap;rounded=0;" vertex="1" parent="1">
          <mxGeometry x="210" y="375" width="60" height="30" as="geometry" />
        </mxCell>
        <mxCell id="j-Q6WdCxTVeyPvP1pBzW-67" value="&lt;font face=&quot;Comic Sans MS&quot; style=&quot;font-size: 14px&quot;&gt;0&lt;/font&gt;" style="rounded=0;whiteSpace=wrap;html=1;shadow=1;fillColor=#f5f5f5;fontColor=#333333;strokeColor=#666666;glass=0;opacity=0;" vertex="1" parent="1">
          <mxGeometry x="240" y="510" width="40" height="40" as="geometry" />
        </mxCell>
        <mxCell id="j-Q6WdCxTVeyPvP1pBzW-68" value="&lt;font face=&quot;Comic Sans MS&quot; style=&quot;font-size: 14px&quot;&gt;1&lt;/font&gt;" style="rounded=0;whiteSpace=wrap;html=1;shadow=1;fillColor=#f5f5f5;fontColor=#333333;strokeColor=#666666;glass=0;opacity=0;" vertex="1" parent="1">
          <mxGeometry x="280" y="510" width="40" height="40" as="geometry" />
        </mxCell>
        <mxCell id="j-Q6WdCxTVeyPvP1pBzW-69" value="&lt;font face=&quot;Comic Sans MS&quot; style=&quot;font-size: 14px&quot;&gt;2&lt;/font&gt;" style="rounded=0;whiteSpace=wrap;html=1;shadow=1;fillColor=#f5f5f5;fontColor=#333333;strokeColor=#666666;glass=0;opacity=0;" vertex="1" parent="1">
          <mxGeometry x="320" y="510" width="40" height="40" as="geometry" />
        </mxCell>
        <mxCell id="j-Q6WdCxTVeyPvP1pBzW-70" value="&lt;font face=&quot;Comic Sans MS&quot;&gt;&lt;span style=&quot;font-size: 14px&quot;&gt;3&lt;/span&gt;&lt;/font&gt;" style="rounded=0;whiteSpace=wrap;html=1;shadow=1;fillColor=#f5f5f5;fontColor=#333333;strokeColor=#666666;glass=0;opacity=0;" vertex="1" parent="1">
          <mxGeometry x="360" y="510" width="40" height="40" as="geometry" />
        </mxCell>
        <mxCell id="j-Q6WdCxTVeyPvP1pBzW-72" value="&lt;font face=&quot;Comic Sans MS&quot; style=&quot;font-size: 14px&quot;&gt;a&lt;/font&gt;" style="rounded=0;whiteSpace=wrap;html=1;shadow=1;fillColor=#e1d5e7;strokeColor=#9673a6;glass=0;" vertex="1" parent="1">
          <mxGeometry x="240" y="550" width="40" height="40" as="geometry" />
        </mxCell>
        <mxCell id="j-Q6WdCxTVeyPvP1pBzW-73" value="&lt;font face=&quot;Comic Sans MS&quot; style=&quot;font-size: 14px&quot;&gt;b&lt;/font&gt;" style="rounded=0;whiteSpace=wrap;html=1;shadow=1;fillColor=#e1d5e7;strokeColor=#9673a6;glass=0;" vertex="1" parent="1">
          <mxGeometry x="280" y="550" width="40" height="40" as="geometry" />
        </mxCell>
        <mxCell id="j-Q6WdCxTVeyPvP1pBzW-74" value="&lt;font face=&quot;Comic Sans MS&quot;&gt;&lt;span style=&quot;font-size: 14px&quot;&gt;c&lt;/span&gt;&lt;/font&gt;" style="rounded=0;whiteSpace=wrap;html=1;shadow=1;fillColor=#e1d5e7;strokeColor=#9673a6;glass=0;" vertex="1" parent="1">
          <mxGeometry x="320" y="550" width="40" height="40" as="geometry" />
        </mxCell>
        <mxCell id="j-Q6WdCxTVeyPvP1pBzW-75" value="&lt;font face=&quot;Comic Sans MS&quot; style=&quot;font-size: 14px&quot;&gt;a&lt;/font&gt;" style="rounded=0;whiteSpace=wrap;html=1;shadow=1;fillColor=#f8cecc;strokeColor=#b85450;glass=0;" vertex="1" parent="1">
          <mxGeometry x="360" y="550" width="40" height="40" as="geometry" />
        </mxCell>
        <mxCell id="j-Q6WdCxTVeyPvP1pBzW-76" value="" style="shape=curlyBracket;whiteSpace=wrap;html=1;rounded=1;flipH=1;shadow=1;glass=0;fontFamily=Comic Sans MS;fontSize=14;rotation=90;" vertex="1" parent="1">
          <mxGeometry x="415" y="540" width="10" height="120" as="geometry" />
        </mxCell>
        <mxCell id="j-Q6WdCxTVeyPvP1pBzW-77" value="&lt;font style=&quot;font-size: 12px&quot;&gt;滑动窗口&amp;nbsp;&lt;/font&gt;" style="text;html=1;strokeColor=none;fillColor=none;align=center;verticalAlign=middle;whiteSpace=wrap;rounded=0;shadow=1;glass=0;fontFamily=Comic Sans MS;fontSize=14;" vertex="1" parent="1">
          <mxGeometry x="360" y="610" width="120" height="20" as="geometry" />
        </mxCell>
        <mxCell id="j-Q6WdCxTVeyPvP1pBzW-79" value="&lt;font style=&quot;font-size: 12px&quot;&gt;left&lt;/font&gt;" style="text;html=1;strokeColor=none;fillColor=none;align=center;verticalAlign=middle;whiteSpace=wrap;rounded=0;shadow=1;glass=0;fontFamily=Comic Sans MS;fontSize=12;" vertex="1" parent="1">
          <mxGeometry x="360" y="570" width="30" height="20" as="geometry" />
        </mxCell>
        <mxCell id="j-Q6WdCxTVeyPvP1pBzW-81" value="&lt;font face=&quot;Comic Sans MS&quot; style=&quot;font-size: 14px&quot;&gt;c&lt;/font&gt;" style="rounded=0;whiteSpace=wrap;html=1;shadow=1;fillColor=#f8cecc;strokeColor=#b85450;glass=0;" vertex="1" parent="1">
          <mxGeometry x="400" y="550" width="40" height="40" as="geometry" />
        </mxCell>
        <mxCell id="j-Q6WdCxTVeyPvP1pBzW-82" value="&lt;font face=&quot;Comic Sans MS&quot; style=&quot;font-size: 14px&quot;&gt;b&lt;/font&gt;" style="rounded=0;whiteSpace=wrap;html=1;shadow=1;fillColor=#f8cecc;strokeColor=#b85450;glass=0;" vertex="1" parent="1">
          <mxGeometry x="440" y="550" width="40" height="40" as="geometry" />
        </mxCell>
        <mxCell id="j-Q6WdCxTVeyPvP1pBzW-84" value="&lt;font face=&quot;Comic Sans MS&quot; style=&quot;font-size: 14px&quot;&gt;4&lt;/font&gt;" style="rounded=0;whiteSpace=wrap;html=1;shadow=1;fillColor=#f5f5f5;fontColor=#333333;strokeColor=#666666;glass=0;opacity=0;" vertex="1" parent="1">
          <mxGeometry x="400" y="510" width="40" height="40" as="geometry" />
        </mxCell>
        <mxCell id="j-Q6WdCxTVeyPvP1pBzW-85" value="&lt;font face=&quot;Comic Sans MS&quot; style=&quot;font-size: 14px&quot;&gt;5&lt;/font&gt;" style="rounded=0;whiteSpace=wrap;html=1;shadow=1;fillColor=#f5f5f5;fontColor=#333333;strokeColor=#666666;glass=0;opacity=0;" vertex="1" parent="1">
          <mxGeometry x="440" y="510" width="40" height="40" as="geometry" />
        </mxCell>
        <mxCell id="j-Q6WdCxTVeyPvP1pBzW-88" value="被移除" style="text;html=1;strokeColor=none;fillColor=none;align=center;verticalAlign=middle;whiteSpace=wrap;rounded=0;" vertex="1" parent="1">
          <mxGeometry x="270" y="605" width="60" height="30" as="geometry" />
        </mxCell>
        <mxCell id="j-Q6WdCxTVeyPvP1pBzW-78" value="&lt;font style=&quot;font-size: 12px&quot;&gt;right&lt;/font&gt;" style="text;html=1;strokeColor=none;fillColor=none;align=center;verticalAlign=middle;whiteSpace=wrap;rounded=0;shadow=1;glass=0;fontFamily=Comic Sans MS;fontSize=12;" vertex="1" parent="1">
          <mxGeometry x="450" y="570" width="30" height="20" as="geometry" />
        </mxCell>
        <mxCell id="j-Q6WdCxTVeyPvP1pBzW-89" value="" style="shape=curlyBracket;whiteSpace=wrap;html=1;rounded=1;flipH=1;shadow=1;glass=0;fontFamily=Comic Sans MS;fontSize=14;rotation=90;" vertex="1" parent="1">
          <mxGeometry x="295" y="540" width="10" height="120" as="geometry" />
        </mxCell>
        <mxCell id="j-Q6WdCxTVeyPvP1pBzW-90" value="当窗口向右扩展，来到了s[5]时&lt;br&gt;s[1]还存在哈希表中但是已经被移除出窗口&lt;br&gt;所以窗口左指针left保持不变" style="text;html=1;strokeColor=none;fillColor=none;align=center;verticalAlign=middle;whiteSpace=wrap;rounded=0;" vertex="1" parent="1">
          <mxGeometry x="240" y="470" width="240" height="50" as="geometry" />
        </mxCell>
      </root>
    </mxGraphModel>
  </diagram>
</mxfile>
